<?xml version="1.0" encoding="UTF-8" standalone="no"?><!DOCTYPE svg PUBLIC "-//W3C//DTD SVG 1.1//EN" "http://www.w3.org/Graphics/SVG/1.1/DTD/svg11.dtd"><svg width="100%" height="100%" viewBox="0 0 1500 2250" version="1.1" xmlns="http://www.w3.org/2000/svg" xmlns:xlink="http://www.w3.org/1999/xlink" xml:space="preserve" xmlns:serif="http://www.serif.com/" style="fill-rule:evenodd;clip-rule:evenodd;"><rect id="Artboard1" x="0" y="0" width="1500" height="2250" style="fill:none;"/><clipPath id="_clip1"><rect id="Artboard11" serif:id="Artboard1" x="0" y="0" width="1500" height="2250"/></clipPath><g clip-path="url(#_clip1)"><path id="border" d="M1497.92,126.852c0,-68.862 -55.907,-124.769 -124.769,-124.769l-1246.3,0c-68.862,0 -124.769,55.907 -124.769,124.769l0,1996.3c0,68.862 55.907,124.769 124.769,124.769l1246.3,0c68.862,0 124.769,-55.907 124.769,-124.769l0,-1996.3Z" style="fill:#fff;"/><clipPath id="_clip2"><path d="M1497.92,126.852c0,-68.862 -55.907,-124.769 -124.769,-124.769l-1246.3,0c-68.862,0 -124.769,55.907 -124.769,124.769l0,1996.3c0,68.862 55.907,124.769 124.769,124.769l1246.3,0c68.862,0 124.769,-55.907 124.769,-124.769l0,-1996.3Z"/></clipPath><g clip-path="url(#_clip2)"><path id="Green" d="M1497.92,126.852c0,-68.862 -55.907,-124.769 -124.769,-124.769l-1246.3,0c-68.862,0 -124.769,55.907 -124.769,124.769l0,1996.3c0,68.862 55.907,124.769 124.769,124.769l1246.3,0c68.862,0 124.769,-55.907 124.769,-124.769l0,-1996.3Z" style="fill:none;stroke:#008000;stroke-width:179.17px;"/><path id="border1" serif:id="border" d="M1497.92,126.852c0,-68.862 -55.907,-124.769 -124.769,-124.769l-1246.3,0c-68.862,0 -124.769,55.907 -124.769,124.769l0,1996.3c0,68.862 55.907,124.769 124.769,124.769l1246.3,0c68.862,0 124.769,-55.907 124.769,-124.769l0,-1996.3Z" style="fill:none;stroke:#fff;stroke-width:120.83px;"/></g><path d="M1497.92,126.852c0,-68.862 -55.907,-124.769 -124.769,-124.769l-1246.3,0c-68.862,0 -124.769,55.907 -124.769,124.769l0,1996.3c0,68.862 55.907,124.769 124.769,124.769l1246.3,0c68.862,0 124.769,-55.907 124.769,-124.769l0,-1996.3Z" style="fill:none;stroke:#000;stroke-width:4.17px;"/><g><path d="M345.214,162.778l90.246,0l-180.353,232.971l-90.246,0l180.353,-232.971Z" style="fill:#008000;stroke:#008000;stroke-width:8.33px;stroke-linecap:round;stroke-linejoin:round;stroke-miterlimit:1.5;"/><path d="M525.566,162.778l90.246,0l-180.352,232.971l-90.246,0l180.352,-232.971Z" style="fill:#008000;stroke:#008000;stroke-width:8.33px;stroke-linecap:round;stroke-linejoin:round;stroke-miterlimit:1.5;"/><path d="M705.919,162.778l90.246,0l-180.353,232.971l-90.246,0l180.353,-232.971Z" style="fill:#008000;stroke:#008000;stroke-width:8.33px;stroke-linecap:round;stroke-linejoin:round;stroke-miterlimit:1.5;"/><path d="M886.271,162.778l90.246,0l-180.352,232.971l-90.246,0l180.352,-232.971Z" style="fill:#008000;stroke:#008000;stroke-width:8.33px;stroke-linecap:round;stroke-linejoin:round;stroke-miterlimit:1.5;"/><path d="M1066.62,162.778l90.246,0l-180.353,232.971l-90.246,0l180.353,-232.971Z" style="fill:#008000;stroke:#008000;stroke-width:8.33px;stroke-linecap:round;stroke-linejoin:round;stroke-miterlimit:1.5;"/><path d="M1246.98,162.778l90.246,0l-180.352,232.971l-90.246,0l180.352,-232.971Z" style="fill:#008000;stroke:#008000;stroke-width:8.33px;stroke-linecap:round;stroke-linejoin:round;stroke-miterlimit:1.5;"/><path d="M255.107,162.778l-90.246,0l180.353,232.971l90.246,0l-180.353,-232.971Z" style="fill:#adff2f;stroke:#008000;stroke-width:8.33px;stroke-linecap:round;stroke-linejoin:round;stroke-miterlimit:1.5;"/><path d="M435.46,162.778l-90.246,0l180.352,232.971l90.246,0l-180.352,-232.971Z" style="fill:#adff2f;stroke:#008000;stroke-width:8.33px;stroke-linecap:round;stroke-linejoin:round;stroke-miterlimit:1.5;"/><path d="M615.812,162.778l-90.246,0l180.353,232.971l90.246,0l-180.353,-232.971Z" style="fill:#adff2f;stroke:#008000;stroke-width:8.33px;stroke-linecap:round;stroke-linejoin:round;stroke-miterlimit:1.5;"/><path d="M796.165,162.778l-90.246,0l180.352,232.971l90.246,0l-180.352,-232.971Z" style="fill:#adff2f;stroke:#008000;stroke-width:8.33px;stroke-linecap:round;stroke-linejoin:round;stroke-miterlimit:1.5;"/><path d="M976.517,162.778l-90.246,0l180.353,232.971l90.246,0l-180.353,-232.971Z" style="fill:#adff2f;stroke:#008000;stroke-width:8.33px;stroke-linecap:round;stroke-linejoin:round;stroke-miterlimit:1.5;"/><path d="M1156.87,162.778l-90.246,0l180.352,232.971l90.246,0l-180.352,-232.971Z" style="fill:#adff2f;stroke:#008000;stroke-width:8.33px;stroke-linecap:round;stroke-linejoin:round;stroke-miterlimit:1.5;"/></g><g><path d="M345.214,1854.25l90.246,0l-180.353,232.971l-90.246,0l180.353,-232.971Z" style="fill:#008000;stroke:#008000;stroke-width:8.33px;stroke-linecap:round;stroke-linejoin:round;stroke-miterlimit:1.5;"/><path d="M525.566,1854.25l90.246,0l-180.352,232.971l-90.246,0l180.352,-232.971Z" style="fill:#008000;stroke:#008000;stroke-width:8.33px;stroke-linecap:round;stroke-linejoin:round;stroke-miterlimit:1.5;"/><path d="M705.919,1854.25l90.246,0l-180.353,232.971l-90.246,0l180.353,-232.971Z" style="fill:#008000;stroke:#008000;stroke-width:8.33px;stroke-linecap:round;stroke-linejoin:round;stroke-miterlimit:1.5;"/><path d="M886.271,1854.25l90.246,0l-180.352,232.971l-90.246,0l180.352,-232.971Z" style="fill:#008000;stroke:#008000;stroke-width:8.33px;stroke-linecap:round;stroke-linejoin:round;stroke-miterlimit:1.5;"/><path d="M1066.62,1854.25l90.246,0l-180.353,232.971l-90.246,0l180.353,-232.971Z" style="fill:#008000;stroke:#008000;stroke-width:8.33px;stroke-linecap:round;stroke-linejoin:round;stroke-miterlimit:1.5;"/><path d="M1246.98,1854.25l90.246,0l-180.352,232.971l-90.246,0l180.352,-232.971Z" style="fill:#008000;stroke:#008000;stroke-width:8.33px;stroke-linecap:round;stroke-linejoin:round;stroke-miterlimit:1.5;"/><path d="M255.107,1854.25l-90.246,0l180.353,232.971l90.246,0l-180.353,-232.971Z" style="fill:#adff2f;stroke:#008000;stroke-width:8.33px;stroke-linecap:round;stroke-linejoin:round;stroke-miterlimit:1.5;"/><path d="M435.46,1854.25l-90.246,0l180.352,232.971l90.246,0l-180.352,-232.971Z" style="fill:#adff2f;stroke:#008000;stroke-width:8.33px;stroke-linecap:round;stroke-linejoin:round;stroke-miterlimit:1.5;"/><path d="M615.812,1854.25l-90.246,0l180.353,232.971l90.246,0l-180.353,-232.971Z" style="fill:#adff2f;stroke:#008000;stroke-width:8.33px;stroke-linecap:round;stroke-linejoin:round;stroke-miterlimit:1.5;"/><path d="M796.165,1854.25l-90.246,0l180.352,232.971l90.246,0l-180.352,-232.971Z" style="fill:#adff2f;stroke:#008000;stroke-width:8.33px;stroke-linecap:round;stroke-linejoin:round;stroke-miterlimit:1.5;"/><path d="M976.517,1854.25l-90.246,0l180.353,232.971l90.246,0l-180.353,-232.971Z" style="fill:#adff2f;stroke:#008000;stroke-width:8.33px;stroke-linecap:round;stroke-linejoin:round;stroke-miterlimit:1.5;"/><path d="M1156.87,1854.25l-90.246,0l180.352,232.971l90.246,0l-180.352,-232.971Z" style="fill:#adff2f;stroke:#008000;stroke-width:8.33px;stroke-linecap:round;stroke-linejoin:round;stroke-miterlimit:1.5;"/></g><g><path d="M397.832,809.05l0,90.246l-232.971,-180.352l0,-90.246l232.971,180.352Z" style="fill:#008000;stroke:#008000;stroke-width:8.33px;stroke-linecap:round;stroke-linejoin:round;stroke-miterlimit:1.5;"/><path d="M397.832,629.294l0,90.246l-232.971,-180.353l0,-90.246l232.971,180.353Z" style="fill:#008000;stroke:#008000;stroke-width:8.33px;stroke-linecap:round;stroke-linejoin:round;stroke-miterlimit:1.5;"/><path d="M397.832,989.403l0,90.246l-232.971,-180.353l0,-90.246l232.971,180.353Z" style="fill:#008000;stroke:#008000;stroke-width:8.33px;stroke-linecap:round;stroke-linejoin:round;stroke-miterlimit:1.5;"/><path d="M397.832,1169.76l0,90.246l-232.971,-180.352l0,-90.246l232.971,180.352Z" style="fill:#008000;stroke:#008000;stroke-width:8.33px;stroke-linecap:round;stroke-linejoin:round;stroke-miterlimit:1.5;"/><path d="M397.832,1350.11l0,90.246l-232.971,-180.353l0,-90.246l232.971,180.353Z" style="fill:#008000;stroke:#008000;stroke-width:8.33px;stroke-linecap:round;stroke-linejoin:round;stroke-miterlimit:1.5;"/><path d="M397.832,1530.46l0,90.246l-232.971,-180.352l0,-90.246l232.971,180.352Z" style="fill:#008000;stroke:#008000;stroke-width:8.33px;stroke-linecap:round;stroke-linejoin:round;stroke-miterlimit:1.5;"/><path d="M397.832,1710.81l0,90.246l-232.971,-180.353l0,-90.246l232.971,180.353Z" style="fill:#008000;stroke:#008000;stroke-width:8.33px;stroke-linecap:round;stroke-linejoin:round;stroke-miterlimit:1.5;"/><path d="M397.832,718.944l0,-90.246l-232.971,180.352l0,90.246l232.971,-180.352Z" style="fill:#adff2f;stroke:#008000;stroke-width:8.33px;stroke-linecap:round;stroke-linejoin:round;stroke-miterlimit:1.5;"/><path d="M397.832,539.187l0,-90.246l-232.971,180.353l0,90.246l232.971,-180.353Z" style="fill:#adff2f;stroke:#008000;stroke-width:8.33px;stroke-linecap:round;stroke-linejoin:round;stroke-miterlimit:1.5;"/><path d="M397.832,899.296l0,-90.246l-232.971,180.353l0,90.246l232.971,-180.353Z" style="fill:#adff2f;stroke:#008000;stroke-width:8.33px;stroke-linecap:round;stroke-linejoin:round;stroke-miterlimit:1.5;"/><path d="M397.832,1079.65l0,-90.246l-232.971,180.352l0,90.246l232.971,-180.352Z" style="fill:#adff2f;stroke:#008000;stroke-width:8.33px;stroke-linecap:round;stroke-linejoin:round;stroke-miterlimit:1.5;"/><path d="M397.832,1260l0,-90.246l-232.971,180.353l0,90.246l232.971,-180.353Z" style="fill:#adff2f;stroke:#008000;stroke-width:8.33px;stroke-linecap:round;stroke-linejoin:round;stroke-miterlimit:1.5;"/><path d="M397.832,1440.35l0,-90.246l-232.971,180.352l0,90.246l232.971,-180.352Z" style="fill:#adff2f;stroke:#008000;stroke-width:8.33px;stroke-linecap:round;stroke-linejoin:round;stroke-miterlimit:1.5;"/><path d="M397.832,1620.71l0,-90.246l-232.971,180.353l0,90.246l232.971,-180.353Z" style="fill:#adff2f;stroke:#008000;stroke-width:8.33px;stroke-linecap:round;stroke-linejoin:round;stroke-miterlimit:1.5;"/></g><g><path d="M1337.22,809.05l0,90.246l-232.971,-180.352l0,-90.246l232.971,180.352Z" style="fill:#008000;stroke:#008000;stroke-width:8.33px;stroke-linecap:round;stroke-linejoin:round;stroke-miterlimit:1.5;"/><path d="M1337.22,629.294l0,90.246l-232.971,-180.353l0,-90.246l232.971,180.353Z" style="fill:#008000;stroke:#008000;stroke-width:8.33px;stroke-linecap:round;stroke-linejoin:round;stroke-miterlimit:1.5;"/><path d="M1337.22,989.403l0,90.246l-232.971,-180.353l0,-90.246l232.971,180.353Z" style="fill:#008000;stroke:#008000;stroke-width:8.33px;stroke-linecap:round;stroke-linejoin:round;stroke-miterlimit:1.5;"/><path d="M1337.22,1169.76l0,90.246l-232.971,-180.352l0,-90.246l232.971,180.352Z" style="fill:#008000;stroke:#008000;stroke-width:8.33px;stroke-linecap:round;stroke-linejoin:round;stroke-miterlimit:1.5;"/><path d="M1337.22,1350.11l0,90.246l-232.971,-180.353l0,-90.246l232.971,180.353Z" style="fill:#008000;stroke:#008000;stroke-width:8.33px;stroke-linecap:round;stroke-linejoin:round;stroke-miterlimit:1.5;"/><path d="M1337.22,1530.46l0,90.246l-232.971,-180.352l0,-90.246l232.971,180.352Z" style="fill:#008000;stroke:#008000;stroke-width:8.33px;stroke-linecap:round;stroke-linejoin:round;stroke-miterlimit:1.5;"/><path d="M1337.22,1710.81l0,90.246l-232.971,-180.353l0,-90.246l232.971,180.353Z" style="fill:#008000;stroke:#008000;stroke-width:8.33px;stroke-linecap:round;stroke-linejoin:round;stroke-miterlimit:1.5;"/><path d="M1337.22,718.944l0,-90.246l-232.971,180.352l0,90.246l232.971,-180.352Z" style="fill:#adff2f;stroke:#008000;stroke-width:8.33px;stroke-linecap:round;stroke-linejoin:round;stroke-miterlimit:1.5;"/><path d="M1337.22,539.187l0,-90.246l-232.971,180.353l0,90.246l232.971,-180.353Z" style="fill:#adff2f;stroke:#008000;stroke-width:8.33px;stroke-linecap:round;stroke-linejoin:round;stroke-miterlimit:1.5;"/><path d="M1337.22,899.296l0,-90.246l-232.971,180.353l0,90.246l232.971,-180.353Z" style="fill:#adff2f;stroke:#008000;stroke-width:8.33px;stroke-linecap:round;stroke-linejoin:round;stroke-miterlimit:1.5;"/><path d="M1337.22,1079.65l0,-90.246l-232.971,180.352l0,90.246l232.971,-180.352Z" style="fill:#adff2f;stroke:#008000;stroke-width:8.33px;stroke-linecap:round;stroke-linejoin:round;stroke-miterlimit:1.5;"/><path d="M1337.22,1260l0,-90.246l-232.971,180.353l0,90.246l232.971,-180.353Z" style="fill:#adff2f;stroke:#008000;stroke-width:8.33px;stroke-linecap:round;stroke-linejoin:round;stroke-miterlimit:1.5;"/><path d="M1337.22,1440.35l0,-90.246l-232.971,180.352l0,90.246l232.971,-180.352Z" style="fill:#adff2f;stroke:#008000;stroke-width:8.33px;stroke-linecap:round;stroke-linejoin:round;stroke-miterlimit:1.5;"/><path d="M1337.22,1620.71l0,-90.246l-232.971,180.353l0,90.246l232.971,-180.353Z" style="fill:#adff2f;stroke:#008000;stroke-width:8.33px;stroke-linecap:round;stroke-linejoin:round;stroke-miterlimit:1.5;"/></g><rect x="451.024" y="448.941" width="600.035" height="1352.12" style="fill:#adff2f;stroke:#008000;stroke-width:8.33px;stroke-linecap:round;stroke-linejoin:round;stroke-miterlimit:1.5;"/><path d="M874.454,502.133c68.113,0 123.413,55.299 123.413,123.413l0,998.908c0,68.114 -55.3,123.413 -123.413,123.413l-246.825,0c-68.113,0 -123.412,-55.299 -123.412,-123.413l0,-998.908c0,-68.114 55.299,-123.413 123.412,-123.413l246.825,0Zm0,79.167l-246.825,0c-24.42,0 -44.246,19.826 -44.246,44.246c0,0 0,998.908 0,998.908c0,24.42 19.826,44.246 44.246,44.246l246.825,0c24.42,0 44.246,-19.826 44.246,-44.246l0,-998.908c0,-24.42 -19.826,-44.246 -44.246,-44.246Z" style="fill:#fff;stroke:#008000;stroke-width:8.33px;stroke-linejoin:round;stroke-miterlimit:2;"/></g></svg>